<svg xmlns="http://www.w3.org/2000/svg" viewBox="0 0 195.15 39.6"><defs><style>.cls-1{fill:#313338;}</style></defs><title>BI_edu</title><g id="Layer_2" data-name="Layer 2"><g id="레이어_1" data-name="레이어 1"><path class="cls-1" d="M35.75,8.8a11,11,0,1,0,11,11A11,11,0,0,0,35.75,8.8Zm0,17.6a6.6,6.6,0,1,1,6.6-6.6A6.6,6.6,0,0,1,35.75,26.4Z"/><path class="cls-1" d="M60.5,8.8a11,11,0,1,0,11,11A11,11,0,0,0,60.5,8.8Zm0,17.6a6.6,6.6,0,1,1,6.6-6.6A6.6,6.6,0,0,1,60.5,26.4Z"/><path class="cls-1" d="M84.69,9.35a9.89,9.89,0,0,0-9.89,9.9v11h4.4v-11a5.49,5.49,0,0,1,5.49-5.5h2.2V9.35Z"/><path class="cls-1" d="M119.89,18.15a8.8,8.8,0,0,0-15.4-5.82,8.8,8.8,0,0,0-15.4,5.82h0v12.1h4.4V18.15a4.4,4.4,0,0,1,8.8,0v12.1h4.4V18.15h0a4.4,4.4,0,1,1,8.8,0h0v12.1h4.4V18.15Z"/><path class="cls-1" d="M147.3,18.49a12.74,12.74,0,0,0-.24-1.35,11.31,11.31,0,0,0-.43-1.32,11,11,0,0,0-21.16,5.28,13.39,13.39,0,0,0,.24,1.36,11.8,11.8,0,0,0,.43,1.31,11,11,0,0,0,21.15-2.64h-2.78a8.24,8.24,0,0,1-15.68,2l15.77-3.94Zm-19.13,1.94a8.24,8.24,0,0,1,15.77-3.93Z"/><path class="cls-1" d="M169.3,0V12.54a11,11,0,1,0,2.75,7.26V0Zm-8.25,28.05a8.25,8.25,0,1,1,8.25-8.25A8.25,8.25,0,0,1,161.05,28.05Z"/><path class="cls-1" d="M192.4,8.8V20.9a7.15,7.15,0,1,1-14.3,0V8.8h-2.75V20.9a9.9,9.9,0,0,0,19.8,0V8.8Z"/><path class="cls-1" d="M22,19.8h0a11,11,0,0,0-22-.56c0,.19,0,.37,0,.56s0,.37,0,.55A10.73,10.73,0,0,0,17.6,28v1.66A6.2,6.2,0,0,1,16,33.58c-2,2-5,2-7,1.32A7.5,7.5,0,0,1,5.36,32L1.27,33.72A11,11,0,0,0,7.75,39.1a11.2,11.2,0,0,0,3.25.5,11.08,11.08,0,0,0,8.1-2.91,10.41,10.41,0,0,0,2.9-7h0ZM11,26.4a6.6,6.6,0,1,1,6.59-6.6A6.6,6.6,0,0,1,11,26.4Z"/></g></g></svg>